# xmcd
#
# Track frame offsets:
#  150
#  19014
#  39727
#  61412
#  81498
#  110558
#  129859
#  148785
#  175428
#  194645
#  213164
#
# Disc length: 3204 seconds
#
# Revision: 3
# Processed by: cddbd v1.5.1PL0 Copyright (c) Steve Scherf et al.
# Submitted via: Collectorz.com_Music_Collector 6.9
#
DISCID=a30c820b
DTITLE=The Matthew Skoller Band - These Kind Of Blues!
DYEAR=2004
DGENRE=Blues -  Blues Electric
TTITLE0=Get Paid
TTITLE1=Ghosts In Your Closet
TTITLE2=Handful Of People
TTITLE3=These Kind Of Blues
TTITLE4=Let The World Come To You
TTITLE5=Wired World
TTITLE6=Stolen Thunder
TTITLE7=Down At Your Buryin
TTITLE8=Julia
TTITLE9=Where Can You Be
TTITLE10=Handful Of People
EXTD=
EXTT0=
EXTT1=
EXTT2=
EXTT3=
EXTT4=
EXTT5=
EXTT6=
EXTT7=
EXTT8=
EXTT9=
EXTT10=
PLAYORDER=
